<?xml version="1.0" standalone="no"?>
<!DOCTYPE svg PUBLIC "-//W3C//DTD SVG 20010904//EN"
 "http://www.w3.org/TR/2001/REC-SVG-20010904/DTD/svg10.dtd">
<svg version="1.0" xmlns="http://www.w3.org/2000/svg"
 width="500.000000pt" height="500.000000pt" viewBox="0 0 500.000000 500.000000"
 preserveAspectRatio="xMidYMid meet">

<g transform="translate(0.000000,500.000000) scale(0.100000,-0.100000)"
fill="#000000" stroke="none">
<path d="M1500 3461 c-56 -18 -107 -51 -146 -94 -23 -25 -67 -60 -98 -77 -59
-34 -74 -52 -87 -110 -10 -44 11 -138 51 -229 16 -37 35 -103 42 -147 8 -43
18 -78 23 -78 14 2 42 62 50 106 5 29 2 46 -14 72 -23 36 -27 76 -11 107 15
27 31 24 61 -13 23 -28 29 -30 43 -19 9 7 16 25 16 38 0 16 17 44 44 74 25 27
54 70 66 95 13 25 28 48 35 50 6 3 39 -14 73 -36 65 -43 149 -68 194 -57 15 4
43 22 62 41 31 29 36 40 36 78 0 53 -8 61 -82 87 -31 11 -82 34 -114 52 -33
18 -72 39 -89 48 -34 17 -119 24 -155 12z"/>
<path d="M3880 3443 c-36 -9 -104 -17 -152 -17 -48 -1 -91 -5 -96 -11 -5 -5
-19 -34 -31 -64 -30 -72 -26 -139 14 -201 16 -25 38 -72 50 -105 24 -69 47
-82 64 -35 6 18 16 30 23 28 18 -6 31 -79 18 -106 -14 -32 -13 -70 6 -131 18
-61 51 -99 114 -131 l45 -23 -41 -11 c-47 -13 -73 -31 -96 -68 -14 -21 -37
-33 -105 -53 -191 -58 -248 -123 -309 -352 l-27 -103 -109 0 -109 0 -60 -58
c-52 -52 -59 -63 -59 -99 0 -54 40 -111 153 -220 l92 -88 -467 -1 c-258 -1
-468 2 -468 7 0 5 26 73 59 151 32 79 69 172 82 207 l24 63 193 -6 193 -6 -23
29 c-27 34 -74 41 -263 41 l-123 0 -26 -62 c-15 -35 -62 -150 -105 -257 l-77
-195 -433 1 c-238 1 -436 4 -439 8 -9 8 -3 85 9 121 8 27 17 34 56 43 66 17
100 37 163 96 57 55 106 85 137 85 12 0 24 16 37 48 10 26 36 88 57 139 37 87
38 93 25 130 -23 67 -74 161 -108 198 -31 36 -114 85 -143 85 -17 0 -16 -18
10 -185 7 -44 11 -82 9 -84 -3 -3 -11 5 -20 17 -23 33 -32 27 -39 -25 -12 -88
-20 -93 -39 -24 -14 51 -15 68 -6 91 17 41 10 76 -15 71 -11 -1 -37 -4 -57 -6
-65 -5 -71 -18 -32 -64 l26 -31 -16 -61 c-8 -34 -17 -64 -20 -66 -2 -2 -14 25
-27 61 -23 65 -41 81 -53 50 -10 -25 -27 -6 -64 75 -39 85 -62 160 -62 208 0
39 -25 49 -98 38 -80 -11 -117 -26 -175 -69 -60 -45 -90 -80 -149 -174 -35
-55 -41 -60 -80 -64 -24 -3 -80 -20 -126 -38 -101 -39 -122 -65 -122 -150 1
-61 23 -179 49 -263 6 -18 21 -68 33 -112 l23 -80 80 -47 c103 -61 325 -155
490 -208 212 -68 245 -79 355 -126 101 -42 149 -69 450 -253 136 -83 492 -265
542 -277 l27 -6 3 234 c2 128 0 254 -4 281 -15 105 -85 146 -303 180 l-150 23
330 -3 c737 -7 1156 -16 1148 -23 -4 -5 -87 -11 -183 -14 -263 -10 -313 -25
-372 -112 -48 -72 -60 -139 -60 -343 0 -101 3 -215 7 -253 l7 -68 92 0 c156 0
252 22 381 87 95 48 151 95 174 148 16 36 25 45 45 45 46 0 120 108 254 376
51 99 109 207 131 239 51 74 144 169 216 220 173 123 270 199 350 277 l90 88
-45 40 c-25 21 -59 47 -77 56 -26 15 -32 26 -38 63 -19 127 -82 213 -181 251
-34 12 -67 34 -87 57 -17 20 -51 45 -75 55 l-43 19 27 32 c130 160 165 226
172 324 4 68 2 77 -32 146 -20 40 -36 82 -36 93 0 70 -59 158 -129 193 -53 27
-172 33 -251 14z m-540 -1451 c0 -5 -6 -16 -12 -25 -12 -15 -15 -14 -41 8
l-28 25 40 0 c23 0 41 -4 41 -8z m198 -457 c-6 -6 -198 8 -198 14 0 3 29 6 63
6 54 0 69 4 98 26 l34 27 3 -35 c2 -19 2 -37 0 -38z"/>
<path d="M1573 3085 c-9 -25 2 -27 22 -5 17 18 17 20 1 20 -9 0 -19 -7 -23
-15z"/>
<path d="M1750 3091 c0 -5 7 -14 15 -21 13 -10 15 -9 15 9 0 12 -6 21 -15 21
-8 0 -15 -4 -15 -9z"/>
<path d="M1580 2990 c0 -20 5 -30 15 -30 10 0 15 10 15 30 0 20 -5 30 -15 30
-10 0 -15 -10 -15 -30z"/>
<path d="M1736 3004 c-11 -28 -6 -54 9 -54 10 0 15 10 15 29 0 34 -15 49 -24
25z"/>
<path d="M1675 2855 c0 -25 9 -33 19 -16 7 10 -3 41 -13 41 -3 0 -6 -11 -6
-25z"/>
<path d="M1570 2782 c0 -14 38 -44 50 -40 6 2 -3 14 -19 26 -17 12 -31 19 -31
14z"/>
</g>
</svg>
